<svg xmlns="http://www.w3.org/2000/svg" viewBox="106 567 1064 120" fill="none">
  <path fill="#101311" d="M1143.8 571.804C1151.08 571.713 1158.48 571.774 1165.77 571.773C1165.8 584.637 1166.94 679.624 1165.08 682.177L1143.83 682.148L1143.8 637.646C1123.12 637.256 1101.32 637.605 1080.56 637.549C1080.46 652.423 1080.45 667.296 1080.51 682.17L1058.42 682.174L1058.34 571.774L1080.48 571.8L1080.55 615.993L1143.75 615.882L1143.8 571.804Z"/>
  <path fill="#101311" d="M964.819 572.096C969.93 571.412 982.834 571.688 988.474 571.694L1030.71 571.781L1030.66 593.769C1018.24 593.936 1003.68 594.009 991.153 593.739C967.568 592.656 945.583 593.991 945.196 624.09C944.769 657.337 959.394 660.073 986.701 660.003L1007.97 659.912L1030.62 660.039L1030.67 682.175L990.628 682.245C981.143 682.254 967.907 682.767 958.978 680.864C952.851 679.541 947.064 676.96 941.986 673.285C931.843 665.933 925.48 654.088 923.682 641.703C918.983 609.324 927.69 577.059 964.819 572.096Z"/>
  <path fill="#101311" d="M166.819 571.708L196.466 571.751C214.677 608.533 234.331 645.462 252.963 682.146L226.585 682.187C213.97 656.137 200.023 629.532 186.71 603.79L181.585 594.047C166.28 623.321 151.188 652.707 136.311 682.201L110.057 682.145C126.886 646.679 148.674 607.135 166.819 571.708Z"/>
  <path fill="#101311" d="M652.531 571.776C689.673 571.069 729.985 571.599 767.271 571.814L767.233 593.754L720.753 593.883L720.718 635.266L720.674 682.165L698.419 682.17L698.384 593.826L652.547 593.77L652.531 571.776Z"/>
  <path fill="#101311" d="M562.214 571.805C569.149 571.544 577.587 571.789 584.628 571.816L584.608 659.92L657.622 659.975L657.636 682.168L562.233 682.157C561.534 646.278 562.201 607.91 562.214 571.805Z"/>
  <path fill="#101311" d="M359.223 571.739C369.763 571.693 380.303 571.732 390.843 571.858L340.391 626.163C356.553 643.011 378.462 664.827 393.393 682.138L361.399 682.192C345.132 662.985 325.58 645.126 309.227 626.294L359.223 571.739Z"/>
  <path fill="#06FD02" d="M511.144 571.663C516.142 571.806 538.105 571.054 540.875 572.392L540.378 573.513C528.126 587.618 515.08 603.683 502.718 617.317L448.986 617.353C436.817 604.278 421.882 585.585 410.08 571.763L440.418 571.711C451.568 586.001 464.858 599.657 475.79 614.098C487.04 599.91 499.453 585.521 511.144 571.663Z"/>
  <path fill="#101311" d="M278.69 571.816C286.099 571.616 293.865 571.761 301.308 571.794L301.268 682.165L278.711 682.17L278.69 571.816Z"/>
  <path fill="#101311" d="M795.309 659.979C827.661 659.162 863.675 659.84 896.277 659.971L896.298 682.126C863.629 682.872 828.202 682.17 795.312 682.159L795.309 659.979Z"/>
  <path fill="#101311" d="M795.259 571.751L896.306 571.773L896.276 593.769C863.184 594.332 828.53 593.808 795.31 593.814L795.259 571.751Z"/>
  <path fill="#06FD02" d="M795.35 615.929L896.328 615.894C896.328 620.459 896.685 633.303 896.063 637.209L895.038 637.791C886.925 637.272 876.185 637.777 867.799 637.671C843.721 637.369 819.328 638.113 795.259 637.661C795.161 630.545 795.311 623.073 795.35 615.929Z"/>
  <path fill="#101311" d="M464.731 625.514C472.118 625.701 479.635 625.532 487.033 625.451L486.923 682.132L464.764 682.154L464.731 625.514Z"/>
  <path fill="#06FD02" d="M181.564 652.691C184.284 655.801 194.278 677.585 196.527 682.121L181.089 682.181L166.911 682.089C170.939 672.805 176.795 661.674 181.564 652.691Z"/>
</svg>
