<?xml version="1.0" encoding="utf-8" ?><svg xmlns="http://www.w3.org/2000/svg" xmlns:xlink="http://www.w3.org/1999/xlink" width="1254" height="1254" viewBox="0 0 1254 1254"><path d="M0 0L1254 0L1254 1254L0 1254L0 0Z"/><path fill="#FEFEFE" d="M743.486 653.588C753.534 652.531 771.734 653.503 781.318 655.087C808.799 659.63 830.074 671.853 846.282 694.62C837.764 701.449 825.64 709.623 816.56 716.149C805.342 702.02 794.301 693.871 776.105 690.585C755.495 686.862 728.239 687.823 710.426 700.029C699.603 707.436 692.248 718.918 690.046 731.847C681.879 778.143 721.021 800.5 761.891 796.526C778.974 794.865 788.768 794.146 803.189 783.761C809.55 778.607 811.481 776.125 816.606 769.535C825.649 776.722 836.945 784.615 846.334 791.711C844.807 793.792 843.231 795.836 841.608 797.842C823.235 820.132 801.309 828.699 773.036 831.692C716.314 837.697 657.22 815.772 651.46 751.689C649.309 727.753 654.843 704.102 670.926 685.203C689.696 663.147 715.359 655.626 743.486 653.588Z"/><path fill="#FEFEFE" d="M317.714 441.53L350.483 441.586L413.976 551.465C425.698 571.603 438.395 592.297 449.627 612.621C434.459 612.879 418.713 612.686 403.499 612.704C394.585 597.604 385.525 582.591 376.32 567.666C372.278 561.202 368.141 554.746 363.989 548.352C354.926 534.394 347.561 519.506 339.849 504.763C337.929 500.824 335.956 496.911 333.929 493.026C325.689 506.251 318.875 522.331 310.874 535.496C295.469 560.848 278.059 586.737 263.683 612.719L217.542 612.684L317.714 441.53Z"/><path fill="#FEFEFE" d="M855.085 441.545L903.862 441.61C889.855 459.182 872.39 478.184 857.644 495.72L812.883 547.592C812.255 568.281 812.801 591.821 812.789 612.739L775.276 612.731L775.244 547.344C746.313 511.963 714.191 477.255 685.054 441.59L734.714 441.538C755.015 464.358 774.342 489.464 795.091 512.585C800.379 505.586 809.244 495.753 815.064 488.855L855.085 441.545Z"/><path fill="#FEFEFE" d="M217.561 657.05L394.751 657.038L394.718 691.871L325.139 691.949L325.07 759.584L325.035 829.126L287.768 829.1L287.728 691.894L217.586 691.933L217.561 657.05Z"/><path fill="#FEFEFE" d="M922.146 441.554L960.451 441.599C961.353 485.886 960.499 533.164 960.494 577.696L1060.61 577.669C1060.7 589.359 1060.69 601.049 1060.59 612.739C1014.58 612.653 968.155 613.133 922.192 612.637C921.272 556.5 922.086 497.869 922.146 441.554Z"/><path fill="#FEFEFE" d="M614.728 441.578L675.356 441.567C663.988 449.944 651.305 460.456 640.074 469.303C616.544 487.903 592.902 506.361 569.149 524.674C601.369 552.619 635.395 581.839 667.038 610.314C667.504 610.749 667.871 611.4 668.249 611.959C666.433 613.197 618.809 612.73 612.492 612.727L560.497 565.39C545.821 551.978 529.861 537.055 514.452 524.649C547.454 496.738 581.68 469.566 614.728 441.578Z"/><path fill="#FEFEFE" d="M892.081 657.061L929.496 657.052L929.533 726.142C939.29 726.198 949.048 726.126 958.804 725.925L958.794 761.178C949.38 760.887 939.076 761.091 929.596 761.097L929.535 829.16L892.103 829.105L892.081 657.061Z"/><path fill="#FEFEFE" d="M1023.88 657.055C1036.1 657.043 1048.89 656.831 1061.06 657.076C1061.2 713.909 1061.81 772.45 1061.07 829.153L1023.89 829.173C1023.9 806.623 1024.15 783.632 1023.88 761.12C1014.4 761.105 1004.2 760.902 994.788 761.159C994.556 749.501 994.564 737.84 994.811 726.183L1023.84 726.097L1023.88 657.055Z"/><path fill="#FEFEFE" d="M473.304 441.59C485.96 441.523 498.617 441.527 511.273 441.601C511.324 498.059 512.106 556.379 511.198 612.668L473.21 612.691C473.013 605.465 473.059 597.861 473.125 590.626C473.582 541.023 472.415 491.166 473.304 441.59Z"/><path fill="#FEFEFE" d="M444.606 657.079L604.998 656.985L605.014 691.93L444.65 691.858C444.467 680.407 444.615 668.562 444.606 657.079Z"/><path fill="#FEFEFE" d="M444.603 794.714C462.268 794.284 481.558 794.658 499.314 794.657L604.969 794.648C605.037 806.15 605.04 817.652 604.979 829.153L444.6 829.115C444.46 817.734 444.592 806.113 444.603 794.714Z"/><path fill="#3AEE20" d="M557.49 725.881L596.081 725.935C596.232 737.472 596.267 749.01 596.185 760.547L485.46 760.56L444.527 760.541L444.589 725.901L557.49 725.881Z"/><path fill="#3AEE20" d="M333.572 555.779C335.199 557.396 344.084 572.353 345.717 575.107C353.065 587.498 361.435 600.133 368.398 612.67C362.605 612.733 337.184 613.82 333.308 611.605C331.108 613.688 303.687 612.741 298.514 612.693C309.353 594.274 322.053 573.79 333.572 555.779Z"/><path fill="#3AEE20" d="M958.804 725.925C968.751 725.394 984.525 726.04 994.811 726.183C994.564 737.84 994.556 749.501 994.788 761.159C984.042 761.879 969.617 761.372 958.794 761.178L958.804 725.925Z"/></svg>