<svg xmlns="http://www.w3.org/2000/svg" viewBox="0 0 256 256" width="256" height="256">
  <rect width="256" height="256" rx="56" fill="#0e1311"/>
  <g transform="translate(-118.5 -723.4) scale(1.358)">
    <path fill="#FEFEFE" d="M166.819 571.708L196.466 571.751C214.677 608.533 234.331 645.462 252.963 682.146L226.585 682.187C213.97 656.137 200.023 629.532 186.71 603.79L181.585 594.047C166.28 623.321 151.188 652.707 136.311 682.201L110.057 682.145C126.886 646.679 148.674 607.135 166.819 571.708Z"/>
    <path fill="#06FD02" d="M181.564 652.691C184.284 655.801 194.278 677.585 196.527 682.121L181.089 682.181L166.911 682.089C170.939 672.805 176.795 661.674 181.564 652.691Z"/>
  </g>
</svg>
